<svg xmlns="http://www.w3.org/2000/svg" width="306" height="377" viewBox="0 0 306 377" version="1.1"><path d="M 123.223 7.552 C 112.933 10.322, 102.924 18.615, 98.606 27.949 C 96.595 32.294, 96.500 34.039, 96.500 66.500 L 96.500 100.500 99.186 105.590 C 104.722 116.082, 112.941 120.740, 127.975 121.904 C 138.525 122.722, 141.633 123.985, 144.736 128.719 C 146.353 131.185, 146.524 135.656, 146.785 182.370 C 146.942 210.398, 146.717 233.679, 146.285 234.105 C 145.853 234.532, 142.044 235.192, 137.820 235.572 L 130.140 236.263 129.820 194.882 C 129.510 154.826, 129.430 153.349, 127.321 148.783 C 122.343 138.007, 110.638 129.471, 97.566 127.084 C 94.303 126.488, 82.095 126, 70.439 126 C 52.936 126, 49.031 126.258, 48.015 127.482 C 47.122 128.558, 46.889 133.139, 47.164 144.232 C 47.507 158.067, 47.775 159.962, 50.021 164.427 C 53.106 170.560, 60.344 178.114, 65.801 180.899 C 73.486 184.819, 80.557 185.999, 96.460 186.015 C 104.732 186.024, 112.154 186.445, 112.954 186.951 C 115.162 188.347, 115.205 237.919, 113 239.014 C 111.551 239.733, 90.713 245.761, 86.363 246.719 C 84.703 247.085, 83.526 246.171, 81.081 242.618 C 72.503 230.150, 55.136 228.619, 45.153 239.450 C 35.288 250.152, 37.577 266.239, 50.043 273.817 C 55.086 276.882, 56.038 277.109, 62.590 276.805 C 71.377 276.399, 76.508 273.371, 81.419 265.694 C 85.236 259.726, 88.784 257.903, 105 253.577 C 121.702 249.120, 135.264 247.733, 156.500 248.308 C 176.701 248.855, 187.811 250.392, 202.500 254.672 C 216.796 258.838, 218.771 259.938, 222.845 266 C 227.914 273.545, 234.251 277.335, 241.787 277.329 C 252.701 277.321, 261.086 271.279, 264.517 260.950 C 269.200 246.850, 257.717 232.137, 241.946 232.031 C 234.973 231.984, 227.432 236.172, 223.710 242.159 C 222.055 244.822, 220.206 246.987, 219.601 246.971 C 218.995 246.956, 212.875 245.253, 206 243.188 L 193.500 239.434 193.570 180.467 L 193.641 121.500 211.570 120.811 C 225.827 120.263, 230.713 119.699, 235.419 118.057 C 246.543 114.175, 252.883 108.839, 258.097 98.969 C 260.299 94.801, 260.459 93.390, 260.479 78 L 260.500 61.500 238 61.200 C 224.057 61.014, 213.218 61.333, 209.500 62.039 C 201.238 63.606, 192.809 68.335, 187.053 74.632 C 178.060 84.473, 178.556 79.515, 178.227 162.785 L 177.938 236.071 171.054 235.897 C 167.268 235.802, 163.698 235.431, 163.120 235.074 C 162.413 234.637, 161.976 217.253, 161.784 181.962 C 161.507 130.794, 161.447 129.386, 159.363 124.878 C 153.929 113.127, 145.506 108.098, 129.500 107.048 C 112.549 105.937, 111 103.758, 111 81.032 L 111 66 126.340 66 C 145.143 66, 154.252 64.050, 162.862 58.181 C 174.362 50.342, 177.705 42.895, 178.678 22.955 C 179.579 4.465, 181.918 5.986, 152.715 6.066 C 135.115 6.114, 127.059 6.520, 123.223 7.552 M 136.500 20.956 C 119.741 21.997, 111.956 27.761, 110.461 40.232 C 110.083 43.384, 110.058 47.097, 110.406 48.482 L 111.038 51 128.269 50.956 C 140.028 50.926, 146.692 50.487, 149.252 49.573 C 154.313 47.767, 159.663 43.553, 161.566 39.873 C 163.713 35.720, 164.680 23.525, 163.021 21.525 C 161.655 19.879, 155.849 19.755, 136.500 20.956 M 210.863 75.705 C 209.412 75.929, 205.841 77.549, 202.927 79.306 C 195.613 83.716, 193 88.809, 193 98.657 L 193 106 210.750 105.978 C 226.439 105.959, 229.023 105.720, 233 103.919 C 238.052 101.632, 242.518 97.763, 244.515 93.944 C 246.011 91.082, 246.839 78.167, 245.650 76.243 C 245.084 75.327, 240.754 75.039, 229.191 75.150 C 220.561 75.232, 212.313 75.482, 210.863 75.705 M 64.250 140.795 C 61.730 141.180, 61.793 140.913, 61.997 150.441 C 62.214 160.512, 65.105 164.949, 74.012 168.885 C 80.196 171.618, 86.336 172.148, 101.500 171.261 L 114.500 170.500 114.801 165.295 C 115.438 154.260, 110.892 146.600, 101.654 143.144 C 97.557 141.611, 93.199 141.109, 81.465 140.820 C 73.234 140.617, 65.487 140.606, 64.250 140.795 M 54.923 247.923 C 50.987 251.859, 50.935 256.776, 54.784 261.084 C 56.960 263.520, 58.384 264.200, 61.307 264.200 C 68.356 264.200, 72.818 259.173, 71.588 252.618 C 70.187 245.148, 60.443 242.403, 54.923 247.923 M 236.077 247.589 C 232.247 250.812, 231.846 256.263, 235.131 260.440 C 238.295 264.462, 241.297 265.265, 246.051 263.363 C 250.656 261.520, 252 259.552, 252 254.648 C 252 249.783, 251.187 248.148, 247.928 246.463 C 243.679 244.265, 239.562 244.656, 236.077 247.589 M 41.500 306.386 C 35.585 308.964, 35.528 309.217, 35.184 334.594 C 34.972 350.218, 35.231 358.562, 35.969 359.942 C 37.019 361.905, 37.922 362, 55.453 362 C 65.564 362, 74.548 361.727, 75.418 361.393 C 77.646 360.538, 77.716 337.896, 75.504 333.655 C 74.191 331.138, 74.192 330.564, 75.510 328.682 C 76.522 327.238, 77 324.044, 77 318.730 C 77 311.656, 76.759 310.681, 74.486 308.574 C 73.103 307.293, 70.572 305.964, 68.861 305.622 C 63.222 304.494, 44.650 305.013, 41.500 306.386 M 87.704 306.596 C 86.166 307.430, 84.493 309.203, 83.986 310.536 C 83.480 311.869, 83.009 323.407, 82.942 336.177 C 82.829 357.377, 82.973 359.507, 84.600 360.697 C 86.513 362.096, 106.100 362.360, 117.500 361.141 L 123.500 360.500 123.804 354.604 C 123.972 351.362, 123.747 348.348, 123.304 347.908 C 122.862 347.468, 117.192 346.791, 110.705 346.404 C 100.662 345.806, 98.956 345.464, 99.213 344.101 C 99.413 343.042, 101.653 341.990, 105.832 340.992 C 113.231 339.227, 114.218 337.959, 113.802 330.746 L 113.500 325.500 106.237 325.798 C 100.161 326.048, 98.868 325.820, 98.325 324.404 C 97.095 321.200, 100.684 320, 111.491 320 C 122.679 320, 124 319.410, 124 314.411 C 124 307.151, 118.914 305.038, 101.500 305.064 C 93.592 305.076, 89.714 305.506, 87.704 306.596 M 138.024 305.951 C 136.112 306.440, 133.788 307.779, 132.859 308.926 C 130.562 311.763, 129.766 321.782, 130.169 342.788 C 130.542 362.275, 130.410 361.959, 138.179 361.985 C 144.782 362.006, 146 360.443, 146 351.948 C 146 345.505, 146.161 344.998, 148.379 344.441 C 149.688 344.113, 152.050 343.991, 153.629 344.172 C 156.494 344.499, 156.501 344.519, 157 353 L 157.500 361.500 163.334 361.802 C 166.775 361.981, 169.749 361.623, 170.584 360.930 C 171.730 359.980, 172 355.396, 172 336.943 C 172 324.396, 171.570 312.999, 171.045 311.617 C 169.319 307.078, 166.313 306.040, 153.427 305.532 C 146.867 305.274, 139.936 305.462, 138.024 305.951 M 181.500 305.877 C 178.587 306.499, 178.477 306.733, 177.700 314.009 C 177.260 318.129, 177.035 330.179, 177.200 340.787 C 177.446 356.612, 177.769 360.243, 179 361.021 C 181.151 362.381, 190.379 362.221, 191.800 360.800 C 192.626 359.974, 193 354.966, 193 344.749 L 193 329.898 196.598 328.395 C 203.434 325.538, 203.442 325.556, 204 344.512 L 204.500 361.500 209.720 361.801 C 219.406 362.360, 219 363.513, 219 335.417 L 219 310.905 216.486 308.574 C 215.103 307.293, 212.572 305.964, 210.861 305.622 C 206.936 304.837, 185.500 305.023, 181.500 305.877 M 230.476 306.396 C 225.819 308.425, 225 311.484, 225 326.856 C 225 345.215, 224.761 344.904, 237.180 342.685 C 249.966 340.401, 251 340.454, 251 343.393 C 251 346.278, 250.442 346.515, 238.964 348.506 C 226.109 350.737, 225 351.376, 225 356.554 C 225 359.491, 225.484 360.972, 226.582 361.393 C 229.160 362.382, 263.368 362.053, 265 361.023 C 266.221 360.253, 266.550 356.859, 266.770 342.788 C 266.923 332.999, 266.627 324.871, 266.087 324.049 C 265.258 322.788, 263.692 322.838, 254.136 324.432 C 242.907 326.306, 240 326.146, 240 323.654 C 240 321.089, 242.605 320.012, 252.905 318.322 C 264.797 316.369, 266.576 315.432, 265.621 311.625 C 264.323 306.453, 260 305.003, 246 305.043 C 237.928 305.066, 232.429 305.545, 230.476 306.396 M 53.690 320.722 C 51.472 321.055, 50.945 321.603, 51.190 323.322 C 51.464 325.250, 52.017 325.462, 56 325.170 C 61.318 324.780, 62.822 323.696, 61.035 321.542 C 59.759 320.005, 59.014 319.922, 53.690 320.722 M 146.394 321.416 C 146.095 322.194, 145.997 324.107, 146.175 325.666 C 146.479 328.314, 146.761 328.479, 150.485 328.177 C 152.677 328, 155.039 327.382, 155.735 326.805 C 157.515 325.328, 157.310 321.333, 155.418 320.607 C 152.455 319.470, 146.951 319.963, 146.394 321.416 M 54.005 341.894 C 52.633 342.275, 51.372 343.306, 51.203 344.184 C 50.970 345.393, 51.940 345.893, 55.198 346.245 C 59.920 346.756, 62.673 345.196, 61.668 342.578 C 61.040 340.942, 58.304 340.697, 54.005 341.894" stroke="none" fill="#73be65" fill-rule="evenodd"/></svg>