<svg xmlns="http://www.w3.org/2000/svg" width="389" height="479" viewBox="0 0 389 479" version="1.1"><path d="M 176 7.945 C 160.483 8.556, 156.655 9.019, 152.259 10.818 C 140.487 15.637, 130.248 24.721, 125.354 34.689 L 122.500 40.500 122.176 83.644 C 121.854 126.426, 121.870 126.826, 124.051 131.144 C 132.155 147.190, 140.646 152.312, 164.183 155.356 C 176.627 156.965, 180.668 158.886, 183.479 164.528 C 185.373 168.330, 185.474 171.139, 185.839 230.245 C 186.048 264.205, 185.944 293.088, 185.607 294.429 C 184.873 297.356, 183.856 297.699, 173.347 298.568 L 165.194 299.241 164.839 246.871 L 164.483 194.500 161.756 188.661 C 155.821 175.953, 140.795 164.759, 125.246 161.464 C 116.170 159.541, 64.181 159.365, 61.810 161.250 C 59.547 163.049, 58.979 171.208, 59.912 188.509 C 60.872 206.298, 62.258 209.926, 72.117 220.466 C 83.261 232.379, 93.106 235.433, 123.442 236.388 C 134.603 236.740, 142.819 237.419, 143.442 238.042 C 144.140 238.740, 144.500 249.614, 144.500 270.014 C 144.500 296.183, 144.270 301.150, 143 302.375 C 140.981 304.324, 109.119 313.169, 107.476 312.237 C 106.761 311.832, 104.357 309.211, 102.133 306.413 C 99.494 303.092, 95.905 300.158, 91.795 297.960 C 86.394 295.072, 84.506 294.590, 78.500 294.569 C 62.278 294.510, 49.842 306.761, 49.640 323 C 49.498 334.423, 56.282 344.493, 67.613 349.680 C 72.339 351.844, 73.873 352.074, 79.761 351.497 C 90.370 350.459, 96.116 347.175, 102.552 338.473 C 106.851 332.660, 109.057 330.645, 113.345 328.617 C 119.993 325.472, 142.243 319.567, 155 317.563 C 185.875 312.712, 230.092 315.460, 258.914 324.022 C 272.469 328.049, 276.104 330.005, 280.693 335.741 C 287.157 343.821, 292.917 348.784, 297.738 350.426 C 311.468 355.105, 326.926 348.753, 333.762 335.623 C 337.434 328.572, 337.612 317.641, 334.163 311 C 330.953 304.820, 326.816 300.740, 320.543 297.566 C 306.954 290.691, 292.937 294.455, 282.969 307.657 C 280.165 311.371, 278.333 312.946, 277.183 312.632 C 276.257 312.378, 268.860 310.263, 260.744 307.931 L 245.987 303.690 246.244 229.095 L 246.500 154.500 256 154.256 C 294.765 153.261, 307.136 149.877, 319.540 136.873 C 322.588 133.677, 326.294 128.461, 327.775 125.281 C 330.376 119.698, 330.481 118.793, 330.833 98.870 L 331.198 78.239 311.156 77.506 C 267.726 75.916, 254.635 78.708, 238.811 92.936 C 230.453 100.451, 228.103 105.944, 226.967 120.627 C 226.461 127.157, 226.035 164.900, 226.019 204.500 C 226.004 244.100, 225.697 281.606, 225.337 287.846 L 224.683 299.192 216.424 298.846 C 211.882 298.656, 207.801 298.135, 207.355 297.689 C 206.910 297.243, 206.226 272.493, 205.835 242.689 C 204.761 160.673, 204.906 163.490, 201.430 156.616 C 197.543 148.930, 189.989 141.888, 182.710 139.164 C 179.553 137.983, 171.343 136.359, 164.466 135.554 C 157.588 134.749, 150.773 133.508, 149.321 132.795 C 142.764 129.579, 141.053 122.585, 141.020 98.871 L 141 84.242 162.750 83.718 C 186.506 83.146, 192.073 82.177, 202.062 76.874 C 214.145 70.460, 221.376 61.588, 224.457 49.395 C 226.277 42.189, 228.117 17.096, 227.106 13.275 C 226.676 11.654, 225.186 9.925, 223.522 9.117 C 219.975 7.396, 201.527 6.940, 176 7.945 M 179 26.668 C 170.573 27.125, 159.210 29.014, 155.453 30.584 C 150.422 32.686, 144.904 37.962, 142.828 42.657 C 140.720 47.423, 139.418 57.544, 140.406 61.483 L 141.078 64.158 164.789 63.829 C 190.710 63.469, 190.746 63.462, 199.280 56.755 C 204.231 52.864, 205.620 49.970, 206.879 40.917 C 208.019 32.716, 207.579 29.167, 205.181 27.250 C 203.689 26.057, 194.178 25.846, 179 26.668 M 262.435 98.378 C 250.447 103.960, 246.101 110.622, 245.261 124.701 L 244.698 134.136 268.099 133.818 C 290.772 133.510, 291.653 133.422, 296.410 131 C 304.331 126.966, 309.576 121.206, 310.885 115.100 C 312.353 108.256, 312.307 98.707, 310.800 97.200 C 309.942 96.342, 303.600 96.003, 288.550 96.010 C 268.542 96.019, 267.249 96.136, 262.435 98.378 M 79.388 180.432 C 77.999 184.051, 79.653 199.400, 81.908 203.819 C 84.412 208.729, 90.825 213.275, 98.432 215.535 C 103.676 217.093, 125.621 217.541, 138.250 216.348 L 145 215.711 145 207.470 C 145 200.403, 144.603 198.464, 142.213 193.864 C 139.202 188.068, 132.840 182.946, 126.177 180.955 C 124.155 180.351, 112.948 179.601, 101.272 179.288 C 81.847 178.769, 79.989 178.866, 79.388 180.432 M 72.984 312.835 C 68.745 315.067, 65.716 320.401, 66.453 324.334 C 68.342 334.416, 79.463 338.025, 87.237 331.080 C 89.987 328.622, 90.385 327.624, 90.385 323.175 C 90.385 317.407, 88.530 314.583, 83.282 312.362 C 79.017 310.557, 77.148 310.643, 72.984 312.835 M 305 311.652 C 295.779 314.690, 293.014 323.529, 299.111 330.474 C 302.847 334.729, 305.398 335.509, 310.812 334.051 C 316.422 332.540, 319 328.997, 319 322.799 C 319 316.403, 317.934 314.591, 313.009 312.620 C 308.841 310.953, 307.584 310.801, 305 311.652 M 53.445 388.068 C 51.765 388.557, 49.335 390.079, 48.046 391.451 C 45.895 393.741, 45.625 395.237, 44.758 409.723 C 44.239 418.400, 44.028 432.443, 44.290 440.928 C 44.704 454.318, 45.006 456.531, 46.574 457.678 C 47.953 458.686, 54.036 459, 72.216 459 L 96.050 459 97.113 456.250 C 98.584 452.448, 97.747 426.318, 96.042 422.811 C 94.934 420.533, 94.984 419.497, 96.367 416.040 C 98.823 409.903, 98.620 396.059, 96.027 392.762 C 92.151 387.833, 88.564 386.992, 71.849 387.090 C 63.407 387.140, 55.125 387.580, 53.445 388.068 M 113.388 387.688 C 112.226 387.916, 109.985 389.450, 108.407 391.097 L 105.539 394.091 105.184 424.295 C 104.883 449.995, 105.054 454.798, 106.332 456.500 C 107.699 458.319, 109.222 458.531, 123.167 458.838 C 131.600 459.024, 142.662 458.869, 147.750 458.495 L 157 457.813 157 449.474 C 157 442.403, 156.734 441.053, 155.250 440.598 C 154.287 440.302, 147.723 439.599, 140.662 439.035 C 123.234 437.643, 122.027 436.588, 133.790 433.032 C 137.481 431.917, 140.995 430.665, 141.600 430.252 C 144.581 428.215, 145.917 421.021, 144.379 415.286 C 143.829 413.234, 143.117 413.051, 134.654 412.786 C 127.032 412.547, 125.470 412.222, 125.201 410.817 C 124.655 407.964, 128.708 406.835, 142.116 406.103 C 150.076 405.668, 155.469 404.931, 156.228 404.172 C 158.015 402.385, 157.728 395.760, 155.730 392.711 C 152.947 388.463, 145.974 386.977, 129.568 387.136 C 121.831 387.211, 114.549 387.459, 113.388 387.688 M 172.324 388.994 C 169.582 390.400, 167.717 392.228, 166.891 394.318 C 165.004 399.095, 164.414 449.147, 166.181 454.500 L 167.502 458.500 174.560 458.790 C 183.881 459.173, 184.824 458.164, 185.672 446.899 C 186.019 442.280, 186.798 438.169, 187.402 437.765 C 189.192 436.568, 196.820 436.899, 197.630 438.210 C 198.041 438.876, 198.630 443.713, 198.939 448.960 L 199.500 458.500 207.480 458.796 C 214.125 459.043, 215.672 458.802, 216.730 457.355 C 218.529 454.895, 218.527 397.618, 216.727 394 C 214.309 389.137, 209.312 387.773, 192.140 387.292 C 177.639 386.885, 176.196 387.009, 172.324 388.994 M 229.070 388.233 C 225.812 389.931, 225.394 391.994, 224.650 410.035 C 223.784 431.054, 225.060 456.794, 227.031 458.040 C 228.952 459.255, 241.068 459.242, 243 458.023 C 244.219 457.254, 244.594 453.463, 245 437.820 L 245.500 418.563 250.261 416.592 C 253.954 415.063, 255.289 414.889, 256.217 415.817 C 257.474 417.074, 258.792 433.593, 258.924 449.750 L 259 459 266.878 459 C 272.982 459, 275.064 458.628, 276.128 457.348 C 277.226 456.026, 277.500 449.503, 277.500 424.710 L 277.500 393.724 273.660 390.612 L 269.820 387.500 250.660 387.233 C 236.691 387.038, 230.842 387.309, 229.070 388.233 M 293.419 388.075 C 286.709 390.023, 285 395.726, 285 416.169 C 285 432.609, 286.146 436.001, 291.699 435.999 C 293.790 435.998, 299.325 435.323, 304 434.500 C 316.345 432.326, 318 432.447, 318 435.525 C 318 438.637, 317.066 439.006, 301.532 442.022 C 292.411 443.793, 289.020 444.889, 287.282 446.627 C 284.826 449.083, 284.268 453.763, 286.035 457.066 C 287.014 458.895, 288.354 458.999, 310.785 458.985 C 323.828 458.976, 335.166 458.548, 335.981 458.033 C 336.988 457.396, 337.682 454.443, 338.151 448.798 C 339.054 437.935, 339.070 419.553, 338.181 414.500 C 337.534 410.825, 337.194 410.473, 333.994 410.168 C 332.079 409.986, 325.679 410.581, 319.772 411.491 C 308.291 413.259, 305 412.938, 305 410.054 C 305 407.639, 308.365 406.384, 321.041 404.071 C 334.951 401.533, 337 400.563, 337 396.514 C 337 392.731, 333.833 389.386, 328.917 387.976 C 324.721 386.773, 297.644 386.848, 293.419 388.075 M 187.750 406.641 C 186.413 407.027, 186 408.223, 186 411.713 L 186 416.279 191.250 415.657 C 197.769 414.885, 200.500 411.914, 198.129 408.174 C 197.235 406.765, 190.675 405.795, 187.750 406.641 M 66.104 407.914 C 65.283 408.434, 64.981 409.508, 65.370 410.522 C 65.917 411.946, 66.983 412.166, 71.514 411.790 C 77.604 411.285, 78.521 410.800, 77.655 408.543 C 76.993 406.817, 68.562 406.358, 66.104 407.914 M 68 434.606 C 64.655 436.067, 64.586 436.198, 66.441 437.567 C 70.506 440.567, 79.109 438.333, 77.694 434.645 C 76.901 432.578, 72.684 432.562, 68 434.606" stroke="none" fill="#0c8454" fill-rule="evenodd"/></svg>